<?xml version="1.0" encoding="utf-8"?>
<!-- Generator: Adobe Illustrator 16.0.0, SVG Export Plug-In . SVG Version: 6.00 Build 0)  -->
<!DOCTYPE svg PUBLIC "-//W3C//DTD SVG 1.1//EN" "http://www.w3.org/Graphics/SVG/1.1/DTD/svg11.dtd">
<svg version="1.1" id="圖層_1" xmlns="http://www.w3.org/2000/svg" xmlns:xlink="http://www.w3.org/1999/xlink" x="0px" y="0px"
	 width="99px" height="99px" viewBox="-41.5 -41.5 99 99" enable-background="new -41.5 -41.5 99 99" xml:space="preserve">
<g>
	<path d="M8,51.457c-24.002,0-43.458-19.455-43.458-43.458S-16.003-35.458,8-35.458S51.457-16.003,51.457,8S32.002,51.457,8,51.457z
		 M8,57.666c27.428,0,49.667-22.238,49.667-49.667c0-27.431-22.238-49.667-49.667-49.667c-27.431,0-49.667,22.235-49.667,49.667
		C-41.667,35.428-19.432,57.666,8,57.666z"/>
	<path d="M-2.734-10.283c1.034-0.533,2.282-0.442,3.228,0.234L22.223,5.471c1.395,0.998,1.722,2.935,0.728,4.333
		c-0.206,0.278-0.448,0.524-0.728,0.724L0.494,26.048c-1.395,1.001-3.335,0.673-4.332-0.722c-0.376-0.521-0.58-1.157-0.58-1.807
		V-7.521C-4.417-8.685-3.768-9.752-2.734-10.283z"/>
</g>
</svg>
